# Blender v2.80 (sub 74) OBJ File: ''
# www.blender.org
mtllib rock2.mtl
o rock_Cube
v 0.930254 1.149957 -0.586733
v 1.356668 0.027406 -0.640491
v 0.638502 1.149957 0.623327
v 1.181616 0.023811 1.095592
v 0.076228 1.149957 0.025851
v -0.944575 0.023811 -0.595353
v -0.749543 1.149957 0.849015
v -1.002925 0.041219 1.231005
v -1.291759 0.001613 0.336435
v 0.216336 0.023863 -0.849087
v 1.383124 0.642510 -0.780586
v -1.079158 0.642510 1.235404
v 1.074623 0.642510 0.996760
v -0.960836 0.642510 -0.689057
v -0.102550 1.261157 0.801736
v 0.851637 1.261157 -0.028732
v 0.098015 0.023863 1.430427
v -0.748236 1.076541 0.209912
v 0.205951 0.992015 -0.620556
v 1.606110 0.023863 0.244906
v -0.042519 0.642510 1.465176
v -1.444152 0.642510 0.304310
v 1.653028 0.642510 0.076950
v 0.251395 0.642510 -1.083916
vt 0.375000 0.000000
vt 0.500000 0.000000
vt 0.500000 0.125000
vt 0.375000 0.125000
vt 0.625000 0.125000
vt 0.625000 0.250000
vt 0.500000 0.250000
vt 0.375000 0.250000
vt 0.375000 0.250000
vt 0.500000 0.250000
vt 0.500000 0.375000
vt 0.375000 0.375000
vt 0.625000 0.250000
vt 0.625000 0.375000
vt 0.625000 0.500000
vt 0.500000 0.500000
vt 0.375000 0.500000
vt 0.500000 0.625000
vt 0.375000 0.625000
vt 0.625000 0.625000
vt 0.625000 0.750000
vt 0.500000 0.750000
vt 0.375000 0.750000
vt 0.125000 0.500000
vt 0.250000 0.500000
vt 0.250000 0.625000
vt 0.125000 0.625000
vt 0.375000 0.500000
vt 0.375000 0.625000
vt 0.375000 0.750000
vt 0.250000 0.750000
vt 0.125000 0.750000
vt 0.625000 0.500000
vt 0.750000 0.500000
vt 0.750000 0.625000
vt 0.625000 0.625000
vt 0.875000 0.500000
vt 0.875000 0.625000
vt 0.875000 0.750000
vt 0.750000 0.750000
vt 0.625000 0.750000
vn -0.1746 0.9541 -0.2434
vn -0.1457 0.9785 -0.1462
vn -0.0000 1.0000 0.0000
vn 0.3405 0.1164 0.9330
vn 0.2679 0.7138 0.6470
vn -0.1228 0.6923 0.7111
vn -0.1969 -0.0664 0.9782
vn -0.9277 -0.1632 0.3358
vn -0.6425 0.7578 0.1134
vn -0.3531 0.8725 -0.3378
vn -0.9056 -0.1605 -0.3925
vn 0.9505 -0.1273 -0.2835
vn 0.6551 0.7412 -0.1467
vn 0.5597 0.7578 0.3354
vn 0.8607 0.1469 0.4875
vn -0.2556 -0.2445 -0.9354
vn -0.2349 0.8694 -0.4346
vn 0.0850 0.6370 -0.7662
vn 0.2105 -0.2938 -0.9324
vn 0.0025 -1.0000 0.0020
usemtl Material
s off
f 1/1/1 19/2/1 5/3/1 16/4/1
f 5/3/2 18/5/2 7/6/2 15/7/2
f 16/4/3 5/3/3 15/7/3 3/8/3
f 4/9/4 13/10/4 21/11/4 17/12/4
f 13/10/5 3/13/5 15/14/5 21/11/5
f 21/11/6 15/14/6 7/15/6 12/16/6
f 17/12/7 21/11/7 12/16/7 8/17/7
f 8/17/8 12/16/8 22/18/8 9/19/8
f 12/16/9 7/15/9 18/20/9 22/18/9
f 22/18/10 18/20/10 5/21/10 14/22/10
f 9/19/11 22/18/11 14/22/11 6/23/11
f 2/24/12 11/25/12 23/26/12 20/27/12
f 11/25/13 1/28/13 16/29/13 23/26/13
f 23/26/14 16/29/14 3/30/14 13/31/14
f 20/27/15 23/26/15 13/31/15 4/32/15
f 6/33/16 14/34/16 24/35/16 10/36/16
f 14/34/17 5/37/17 19/38/17 24/35/17
f 24/35/18 19/38/18 1/39/18 11/40/18
f 10/36/19 24/35/19 11/40/19 2/41/19
f 6/33/20 10/36/20 2/41/20 20/27/20 4/32/20 17/12/20 8/17/20 9/19/20
