# Blender v2.80 (sub 74) OBJ File: ''
# www.blender.org
mtllib rock3obj.mtl
o rock2_Cube.001
v -0.069833 1.619394 -0.442864
v 2.009036 0.043487 -1.524709
v 0.422237 2.456209 0.816831
v 1.724830 0.037649 1.293924
v -1.727167 0.037649 -1.451426
v -1.410521 1.866015 0.893591
v -1.821903 0.065913 1.513774
v -2.290841 0.001610 0.061387
v 0.157640 0.037735 -1.863377
v 1.695584 0.657967 -1.752162
v -1.945671 1.042144 1.520916
v 1.551119 1.042144 1.133463
v -1.753569 1.042144 -1.603559
v 2.490193 0.585322 -0.359901
v -0.034462 0.037735 1.837548
v -1.408399 1.746819 -0.144030
v 0.140779 1.609586 -1.492344
v 2.414020 0.037735 -0.087216
v -0.262626 1.042144 1.893965
v -2.538260 1.042144 0.009230
v 0.214560 1.042144 -2.244636
vt 0.500000 0.125000
vt 0.625000 0.125000
vt 0.625000 0.250000
vt 0.500000 0.250000
vt 0.375000 0.125000
vt 0.375000 0.250000
vt 0.375000 0.250000
vt 0.500000 0.250000
vt 0.500000 0.375000
vt 0.375000 0.375000
vt 0.625000 0.375000
vt 0.625000 0.500000
vt 0.500000 0.500000
vt 0.375000 0.500000
vt 0.500000 0.625000
vt 0.375000 0.625000
vt 0.625000 0.625000
vt 0.625000 0.750000
vt 0.500000 0.750000
vt 0.375000 0.750000
vt 0.125000 0.500000
vt 0.250000 0.500000
vt 0.250000 0.625000
vt 0.125000 0.625000
vt 0.375000 0.500000
vt 0.375000 0.625000
vt 0.375000 0.750000
vt 0.250000 0.750000
vt 0.125000 0.750000
vt 0.625000 0.500000
vt 0.750000 0.500000
vt 0.750000 0.625000
vt 0.625000 0.625000
vt 0.875000 0.500000
vt 0.875000 0.625000
vt 0.875000 0.750000
vt 0.750000 0.750000
vt 0.625000 0.750000
vn -0.1755 0.9216 -0.3461
vn 0.3144 0.7295 -0.6074
vn 0.3405 0.1164 0.9330
vn 0.3437 0.4580 0.8198
vn -0.1719 0.6545 0.7363
vn -0.1969 -0.0664 0.9782
vn -0.9277 -0.1632 0.3358
vn -0.6425 0.7578 0.1134
vn -0.2748 0.8897 -0.3646
vn -0.9056 -0.1605 -0.3925
vn 0.9207 0.0203 -0.3897
vn 0.3740 0.9125 -0.1658
vn 0.7251 0.6373 0.2610
vn 0.8675 0.1835 0.4623
vn -0.2556 -0.2445 -0.9354
vn -0.2529 0.9091 -0.3312
vn 0.4880 0.8507 -0.1955
vn 0.1953 -0.3179 -0.9278
vn 0.0025 -1.0000 0.0020
usemtl Material.001
s off
f 1/1/1 16/2/1 6/3/1 3/4/1
f 14/5/2 1/1/2 3/6/2
f 4/7/3 12/8/3 19/9/3 15/10/3
f 12/8/4 3/11/4 19/9/4
f 19/9/5 3/11/5 6/12/5 11/13/5
f 15/10/6 19/9/6 11/13/6 7/14/6
f 7/14/7 11/13/7 20/15/7 8/16/7
f 11/13/8 6/12/8 16/17/8 20/15/8
f 20/15/9 16/17/9 1/18/9 13/19/9
f 8/16/10 20/15/10 13/19/10 5/20/10
f 2/21/11 10/22/11 14/23/11 18/24/11
f 10/22/12 1/25/12 14/23/12
f 14/26/13 3/27/13 12/28/13
f 18/24/14 14/23/14 12/28/14 4/29/14
f 5/30/15 13/31/15 21/32/15 9/33/15
f 13/31/16 1/34/16 17/35/16 21/32/16
f 21/32/17 17/35/17 1/36/17 10/37/17
f 9/33/18 21/32/18 10/37/18 2/38/18
f 5/30/19 9/33/19 2/38/19 18/24/19 4/29/19 15/10/19 7/14/19 8/16/19
