# Blender v2.80 (sub 74) OBJ File: ''
# www.blender.org
mtllib rock1.mtl
o rock3_Cube.003
v 0.302426 0.212171 0.617794
v 0.300408 0.018401 0.628003
v 0.417912 0.170567 0.383133
v 0.310564 0.017729 0.302135
v 0.530453 0.304156 0.487223
v 0.728770 0.017729 0.589800
v 0.673719 0.304156 0.323098
v 0.716004 0.020982 0.248616
v 0.781422 0.013582 0.411623
v 0.515663 0.017739 0.652123
v 0.220522 0.117356 0.659790
v 0.730157 0.075752 0.246809
v 0.331786 0.075752 0.319172
v 0.733014 0.075752 0.607056
v 0.553733 0.324933 0.340286
v 0.309857 0.232948 0.512766
v 0.508210 0.017739 0.225695
v 0.681749 0.290438 0.442242
v 0.514640 0.141056 0.609391
v 0.242451 0.017739 0.466196
v 0.533955 0.075752 0.217399
v 0.810244 0.075752 0.415638
v 0.159112 0.117356 0.503441
v 0.512168 0.075752 0.696349
v 0.508546 0.576242 -0.503595
v 0.516367 0.019213 -0.532470
v 0.130621 0.456642 0.146360
v 0.422343 0.017282 0.400027
v -0.171391 0.840670 -0.174560
v -0.719691 0.017282 -0.508225
v -0.614934 0.840670 0.267583
v -0.751033 0.026632 0.472761
v -0.906173 0.005359 -0.007737
v -0.096135 0.017310 -0.644512
v 0.751794 0.303678 -0.607719
v -0.791980 0.184079 0.475123
v 0.364874 0.184079 0.346941
v -0.728426 0.184079 -0.558556
v -0.267417 0.900399 0.242189
v 0.466319 0.635970 -0.203878
v -0.159689 0.017310 0.579876
v -0.614232 0.801236 -0.075696
v -0.101713 0.371807 -0.521762
v 0.650350 0.017310 -0.056900
v -0.235173 0.184079 0.598540
v -0.988027 0.184079 -0.024992
v 0.896767 0.303678 -0.147113
v -0.077304 0.184079 -0.770645
v 0.206053 0.141062 0.825610
v 0.212559 0.012523 0.827916
v 0.063129 0.113463 0.727259
v -0.000351 0.012077 0.789934
v 0.142264 0.202081 0.663395
v 0.228650 0.012077 0.543085
v 0.048307 0.202081 0.553588
v 0.003484 0.014235 0.518676
v 0.116761 0.009326 0.491403
v 0.249077 0.012084 0.688949
v 0.225746 0.078166 0.883404
v 0.003658 0.050567 0.509213
v 0.012871 0.050567 0.777642
v 0.240384 0.050567 0.541958
v 0.048058 0.215863 0.633994
v 0.137831 0.154845 0.810640
v -0.031529 0.012084 0.652861
v 0.127280 0.192981 0.559768
v 0.220931 0.093887 0.685513
v 0.100786 0.012084 0.850407
v -0.034500 0.050567 0.635166
v 0.122167 0.050567 0.472872
v 0.117224 0.078166 0.908687
v 0.277769 0.050567 0.695493
vt 0.375000 0.000000
vt 0.500000 0.000000
vt 0.500000 0.125000
vt 0.375000 0.125000
vt 0.625000 0.125000
vt 0.625000 0.250000
vt 0.500000 0.250000
vt 0.375000 0.250000
vt 0.375000 0.250000
vt 0.500000 0.250000
vt 0.500000 0.375000
vt 0.375000 0.375000
vt 0.625000 0.250000
vt 0.625000 0.375000
vt 0.625000 0.500000
vt 0.500000 0.500000
vt 0.375000 0.500000
vt 0.500000 0.625000
vt 0.375000 0.625000
vt 0.625000 0.625000
vt 0.625000 0.750000
vt 0.500000 0.750000
vt 0.375000 0.750000
vt 0.125000 0.500000
vt 0.250000 0.500000
vt 0.250000 0.625000
vt 0.125000 0.625000
vt 0.375000 0.500000
vt 0.375000 0.625000
vt 0.375000 0.750000
vt 0.250000 0.750000
vt 0.125000 0.750000
vt 0.625000 0.500000
vt 0.750000 0.500000
vt 0.750000 0.625000
vt 0.625000 0.625000
vt 0.875000 0.500000
vt 0.875000 0.625000
vt 0.875000 0.750000
vt 0.750000 0.750000
vt 0.625000 0.750000
vt 0.375000 0.000000
vt 0.500000 0.000000
vt 0.500000 0.125000
vt 0.375000 0.125000
vt 0.625000 0.125000
vt 0.625000 0.250000
vt 0.500000 0.250000
vt 0.375000 0.250000
vt 0.375000 0.250000
vt 0.500000 0.250000
vt 0.500000 0.375000
vt 0.375000 0.375000
vt 0.625000 0.250000
vt 0.625000 0.375000
vt 0.625000 0.500000
vt 0.500000 0.500000
vt 0.375000 0.500000
vt 0.500000 0.625000
vt 0.375000 0.625000
vt 0.625000 0.625000
vt 0.625000 0.750000
vt 0.500000 0.750000
vt 0.375000 0.750000
vt 0.125000 0.500000
vt 0.250000 0.500000
vt 0.250000 0.625000
vt 0.125000 0.625000
vt 0.375000 0.500000
vt 0.375000 0.625000
vt 0.375000 0.750000
vt 0.250000 0.750000
vt 0.125000 0.750000
vt 0.625000 0.500000
vt 0.750000 0.500000
vt 0.750000 0.625000
vt 0.625000 0.625000
vt 0.875000 0.500000
vt 0.875000 0.625000
vt 0.875000 0.750000
vt 0.750000 0.750000
vt 0.625000 0.750000
vt 0.375000 0.000000
vt 0.500000 0.000000
vt 0.500000 0.125000
vt 0.375000 0.125000
vt 0.625000 0.125000
vt 0.625000 0.250000
vt 0.500000 0.250000
vt 0.375000 0.250000
vt 0.375000 0.250000
vt 0.500000 0.250000
vt 0.500000 0.375000
vt 0.375000 0.375000
vt 0.625000 0.250000
vt 0.625000 0.375000
vt 0.625000 0.500000
vt 0.500000 0.500000
vt 0.375000 0.500000
vt 0.500000 0.625000
vt 0.375000 0.625000
vt 0.625000 0.625000
vt 0.625000 0.750000
vt 0.500000 0.750000
vt 0.375000 0.750000
vt 0.125000 0.500000
vt 0.250000 0.500000
vt 0.250000 0.625000
vt 0.125000 0.625000
vt 0.375000 0.500000
vt 0.375000 0.625000
vt 0.375000 0.750000
vt 0.250000 0.750000
vt 0.125000 0.750000
vt 0.625000 0.500000
vt 0.750000 0.500000
vt 0.750000 0.625000
vt 0.625000 0.625000
vt 0.875000 0.500000
vt 0.875000 0.625000
vt 0.875000 0.750000
vt 0.750000 0.750000
vt 0.625000 0.750000
vn 0.0494 0.7739 0.6314
vn 0.1555 0.9785 0.1358
vn -0.5463 0.7503 -0.3723
vn -0.3965 0.2275 -0.8894
vn -0.5261 0.5253 -0.6688
vn 0.0611 0.3882 -0.9196
vn 0.1284 -0.1334 -0.9827
vn 0.8677 -0.3115 -0.3874
vn 0.8726 0.4215 -0.2469
vn 0.6070 0.5700 0.5537
vn 0.8979 -0.3035 0.3189
vn -0.6983 -0.6656 0.2634
vn -0.6434 0.7412 0.1918
vn -0.4191 0.6810 -0.6005
vn -0.8226 -0.1338 -0.5526
vn 0.2947 -0.4489 0.8436
vn 0.2029 0.6524 0.7302
vn 0.0887 0.5960 0.7981
vn -0.1438 -0.4921 0.8585
vn -0.0026 -1.0000 -0.0018
vn -0.0055 0.7739 -0.6333
vn -0.1457 0.9785 -0.1462
vn 0.5192 0.7503 0.4092
vn 0.3339 0.2275 0.9148
vn 0.4785 0.5253 0.7037
vn -0.1246 0.3882 0.9131
vn -0.1961 -0.1334 0.9715
vn -0.8924 -0.3115 0.3264
vn -0.8876 0.4215 0.1859
vn -0.5672 0.5700 -0.5944
vn -0.8736 -0.3035 -0.3804
vn 0.7149 -0.6656 -0.2144
vn 0.6551 0.7412 -0.1467
vn 0.3765 0.6810 0.6280
vn 0.7823 -0.1338 0.6083
vn -0.2356 -0.4489 -0.8620
vn -0.1518 0.6524 -0.7425
vn -0.0332 0.5960 -0.8023
vn 0.2029 -0.4921 -0.8465
vn 0.0025 -1.0000 0.0020
vn 0.6319 0.7739 0.0426
vn 0.1569 0.9785 -0.1342
vn -0.4475 0.7503 0.4866
vn -0.9375 0.2275 0.2634
vn -0.7380 0.5253 0.4236
vn -0.9010 0.3882 -0.1936
vn -0.9537 -0.1334 -0.2694
vn -0.2576 -0.3115 -0.9146
vn -0.1179 0.4215 -0.8991
vn 0.6358 0.5700 -0.5204
vn 0.4456 -0.3035 -0.8422
vn 0.1594 -0.6656 0.7291
vn 0.0966 0.7412 0.6644
vn -0.6548 0.6810 0.3277
vn -0.6660 -0.1338 0.7339
vn 0.8774 -0.4489 -0.1694
vn 0.7519 0.6524 -0.0950
vn 0.8025 0.5960 0.0278
vn 0.8287 -0.4921 0.2667
vn -0.0022 -1.0000 0.0023
usemtl Material.003
s off
f 1/1/1 19/2/1 5/3/1 16/4/1
f 5/3/2 18/5/2 7/6/2 15/7/2
f 16/4/3 5/3/3 15/7/3 3/8/3
f 4/9/4 13/10/4 21/11/4 17/12/4
f 13/10/5 3/13/5 15/14/5 21/11/5
f 21/11/6 15/14/6 7/15/6 12/16/6
f 17/12/7 21/11/7 12/16/7 8/17/7
f 8/17/8 12/16/8 22/18/8 9/19/8
f 12/16/9 7/15/9 18/20/9 22/18/9
f 22/18/10 18/20/10 5/21/10 14/22/10
f 9/19/11 22/18/11 14/22/11 6/23/11
f 2/24/12 11/25/12 23/26/12 20/27/12
f 11/25/13 1/28/13 16/29/13 23/26/13
f 23/26/14 16/29/14 3/30/14 13/31/14
f 20/27/15 23/26/15 13/31/15 4/32/15
f 6/33/16 14/34/16 24/35/16 10/36/16
f 14/34/17 5/37/17 19/38/17 24/35/17
f 24/35/18 19/38/18 1/39/18 11/40/18
f 10/36/19 24/35/19 11/40/19 2/41/19
f 6/33/20 10/36/20 2/41/20 20/27/20 4/32/20 17/12/20 8/17/20 9/19/20
usemtl Material.002
f 25/42/21 43/43/21 29/44/21 40/45/21
f 29/44/22 42/46/22 31/47/22 39/48/22
f 40/45/23 29/44/23 39/48/23 27/49/23
f 28/50/24 37/51/24 45/52/24 41/53/24
f 37/51/25 27/54/25 39/55/25 45/52/25
f 45/52/26 39/55/26 31/56/26 36/57/26
f 41/53/27 45/52/27 36/57/27 32/58/27
f 32/58/28 36/57/28 46/59/28 33/60/28
f 36/57/29 31/56/29 42/61/29 46/59/29
f 46/59/30 42/61/30 29/62/30 38/63/30
f 33/60/31 46/59/31 38/63/31 30/64/31
f 26/65/32 35/66/32 47/67/32 44/68/32
f 35/66/33 25/69/33 40/70/33 47/67/33
f 47/67/34 40/70/34 27/71/34 37/72/34
f 44/68/35 47/67/35 37/72/35 28/73/35
f 30/74/36 38/75/36 48/76/36 34/77/36
f 38/75/37 29/78/37 43/79/37 48/76/37
f 48/76/38 43/79/38 25/80/38 35/81/38
f 34/77/39 48/76/39 35/81/39 26/82/39
f 30/74/40 34/77/40 26/82/40 44/68/40 28/73/40 41/53/40 32/58/40 33/60/40
usemtl Material.004
f 49/83/41 67/84/41 53/85/41 64/86/41
f 53/85/42 66/87/42 55/88/42 63/89/42
f 64/86/43 53/85/43 63/89/43 51/90/43
f 52/91/44 61/92/44 69/93/44 65/94/44
f 61/92/45 51/95/45 63/96/45 69/93/45
f 69/93/46 63/96/46 55/97/46 60/98/46
f 65/94/47 69/93/47 60/98/47 56/99/47
f 56/99/48 60/98/48 70/100/48 57/101/48
f 60/98/49 55/97/49 66/102/49 70/100/49
f 70/100/50 66/102/50 53/103/50 62/104/50
f 57/101/51 70/100/51 62/104/51 54/105/51
f 50/106/52 59/107/52 71/108/52 68/109/52
f 59/107/53 49/110/53 64/111/53 71/108/53
f 71/108/54 64/111/54 51/112/54 61/113/54
f 68/109/55 71/108/55 61/113/55 52/114/55
f 54/115/56 62/116/56 72/117/56 58/118/56
f 62/116/57 53/119/57 67/120/57 72/117/57
f 72/117/58 67/120/58 49/121/58 59/122/58
f 58/118/59 72/117/59 59/122/59 50/123/59
f 54/115/60 58/118/60 50/123/60 68/109/60 52/114/60 65/94/60 56/99/60 57/101/60
